PathFileType	4	(X/Y/Z)	Walk8.trc
DataRate	CameraRate	NumFrames	NumMarkers	Units	OrigDataRate	OrigDataStartFrame	OrigNumFrames
200.000000	200.000000	9	59	mm	200.000000	271	515
Frame#	Times		RFHD		RACR1		RUA1		RFA1		RWRR		LACR1		LFA1		LWRU		RTH1		LTH4		CLAV		RWRU		LTH2		LFHD		LUA1		RBack		RCAR		LTH3		RElbow		T10		LASI		C7		LTH1		LLFC		LWRR		LTB2		STRN		LMT1		LTB4		LBHD		RTB1		RTH4		LMMAL		LTB1		LElbowM		LCAL		LCAR		RTH2		RPSI		LElbow		RBHD		LTB3		RTH3		LMT5		RLFC		RElbowM		RTB2		RTB4		LPSI		RMT1		RTB3		LLMAL		RASI		RCAL		RLMAL		RToe		LToe		RMMAL		RMT5
			X1	Y1	Z1	X2	Y2	Z2	X3	Y3	Z3	X4	Y4	Z4	X5	Y5	Z5	X6	Y6	Z6	X7	Y7	Z7	X8	Y8	Z8	X9	Y9	Z9	X10	Y10	Z10	X11	Y11	Z11	X12	Y12	Z12	X13	Y13	Z13	X14	Y14	Z14	X15	Y15	Z15	X16	Y16	Z16	X17	Y17	Z17	X18	Y18	Z18	X19	Y19	Z19	X20	Y20	Z20	X21	Y21	Z21	X22	Y22	Z22	X23	Y23	Z23	X24	Y24	Z24	X25	Y25	Z25	X26	Y26	Z26	X27	Y27	Z27	X28	Y28	Z28	X29	Y29	Z29	X30	Y30	Z30	X31	Y31	Z31	X32	Y32	Z32	X33	Y33	Z33	X34	Y34	Z34	X35	Y35	Z35	X36	Y36	Z36	X37	Y37	Z37	X38	Y38	Z38	X39	Y39	Z39	X40	Y40	Z40	X41	Y41	Z41	X42	Y42	Z42	X43	Y43	Z43	X44	Y44	Z44	X45	Y45	Z45	X46	Y46	Z46	X47	Y47	Z47	X48	Y48	Z48	X49	Y49	Z49	X50	Y50	Z50	X51	Y51	Z51	X52	Y52	Z52	X53	Y53	Z53	X54	Y54	Z54	X55	Y55	Z55	X56	Y56	Z56	X57	Y57	Z57	X58	Y58	Z58	X59	Y59	Z59

271	1.355	-537.95	1401.7	27.727	-626.31	1198.1	148	-597.39	1055.4	227.67	-481.89	833.71	248.6	-439.18	749.49	200.48	-636.7	1194.9	-220.41	-633.72	822.26	-347.49	-659.87	715.97	-376.48	-674.05	622.64	178.64	-594.04	549.44	-218.68	-556.46	1165.3	-32.57	-466.54	732.22	264.59	-547.72	573.13	-188.25	-525.94	1412.2	-67.712	-631.12	1027.7	-289.79	-744.69	1129.5	86.91	-403.48	699.17	247.01	-573.99	469.23	-188.11	-574.88	928.1	258.83	-788.41	1050.9	-21.148	-581.55	799.23	-184.88	-699.73	1251.5	-32.905	-614.97	630.36	-239.9	-527.11	393.34	-148.62	-609.04	709.06	-339.54	-472.14	223.78	-136.96	-507.77	1058.2	-24.394	-279.33	103.63	-84.716	-450.98	230.94	-79.064	-653.62	1337.8	-101.03	-761.74	272.17	47.594	-700.51	544.86	156.34	-427.05	86.545	-32.214	-472.86	316.05	-82.663	-703.47	892.67	-238.68	-476.57	33.796	-61.359	-625.59	666.46	-390.58	-644.96	532.62	136.41	-833.41	834	19.368	-677.39	916.24	-306.04	-668.52	1331.9	31.075	-423.87	152.4	-77.03	-723.5	465.21	124.46	-351.6	50.041	-129.01	-774.45	387.23	101.02	-625.92	886.61	192.77	-839.51	208.43	83.409	-804.68	197.32	34.151	-835.29	824.02	-84.75	-812.48	24.244	-15.641	-842.54	122.22	20.664	-445.45	62.822	-108.54	-574.27	806.64	135.82	-972.44	73.84	4.8308	-911.21	79.819	52.525	-756.85	22.561	24.247	-317.88	86.762	-55.389	-894.36	87.278	-31.058	-842.43	18.442	75.01
272	1.36	-531.97	1401.1	27.18	-620.55	1197.4	147.28	-591.34	1054.9	227.07	-476.04	833.32	248.49	-433.22	749.1	200.58	-630.44	1194	-221.19	-627.28	821.14	-347.98	-653.58	714.89	-376.91	-667.8	622.36	178.96	-587.16	549.09	-218.17	-550.29	1164.7	-33.158	-460.62	731.86	264.68	-540.79	572.9	-187.96	-519.92	1411.6	-68.253	-625	1026.7	-290.5	-738.81	1128.7	85.944	-397.52	698.89	247.22	-566.92	468.98	-187.49	-569.05	927.69	258.55	-782.1	1050.1	-22.033	-574.8	798.02	-184.94	-693.73	1250.8	-33.826	-608.27	629.93	-239.54	-520.31	392.94	-148.07	-602.66	707.89	-340.12	-466.84	222.65	-136.01	-501.46	1057.7	-24.494	-275.02	98.763	-82.941	-445.84	229.67	-78.016	-647.53	1337.1	-101.68	-757.79	271.68	48.278	-694.51	544.63	156.95	-423.66	85.011	-31.073	-466.93	314.91	-81.793	-696.64	891.66	-238.99	-473.84	33.705	-60.604	-619.42	665.34	-391.11	-639.02	532.1	136.96	-827.09	833.41	18.761	-670.78	915.11	-306.39	-662.51	1331.2	30.413	-419.47	150.94	-75.792	-717.79	464.96	125.11	-348.67	47.287	-127.82	-769.02	387.02	101.76	-620.1	885.98	192.6	-836.37	209.02	84.184	-801.84	197.54	34.79	-828.41	823.25	-85.238	-812.5	24.383	-15.512	-840.8	123.01	21.273	-442.07	61.823	-107.52	-568.22	806.49	136.33	-971.36	76.719	5.6078	-910.05	81.488	53.235	-756.93	22.498	24.052	-314.42	83.042	-53.801	-893.24	88.917	-30.35	-842.25	18.496	75.081
273	1.365	-525.99	1400.6	26.618	-614.77	1196.7	146.54	-585.29	1054.4	226.44	-470.27	832.93	248.38	-427.35	748.7	200.69	-624.15	1193.1	-222.01	-620.73	820.04	-348.44	-647.16	713.8	-377.3	-661.44	622.1	179.28	-580.22	548.91	-217.67	-544.08	1164.1	-33.781	-454.82	731.51	264.78	-533.78	572.83	-187.7	-513.89	1411.1	-68.81	-618.88	1025.7	-291.24	-732.92	1128	84.936	-391.69	698.61	247.47	-559.79	468.89	-186.88	-563.27	927.32	258.26	-775.77	1049.4	-22.945	-568.06	796.9	-185.03	-687.68	1250.1	-34.789	-601.49	629.65	-239.19	-513.44	392.68	-147.56	-596.17	706.75	-340.62	-461.65	221.59	-135.13	-495.13	1057.3	-24.676	-270.99	93.52	-81.205	-440.83	228.42	-77.03	-641.42	1336.6	-102.35	-753.61	271.17	49.036	-688.34	544.4	157.55	-420.56	83.492	-30.01	-461.05	313.83	-80.981	-689.75	890.7	-239.3	-471.49	33.762	-59.934	-613.11	664.22	-391.53	-632.9	531.62	137.5	-820.74	832.84	18.215	-664.11	914.01	-306.75	-656.47	1330.5	29.733	-415.29	149.49	-74.625	-711.85	464.68	125.79	-346.14	44.42	-126.74	-763.31	386.77	102.58	-614.34	885.41	192.42	-833.04	209.65	85.009	-798.82	197.77	35.484	-821.56	822.56	-85.66	-812.5	24.542	-15.379	-838.9	123.86	21.923	-439.01	60.89	-106.59	-562.18	806.43	136.8	-970.09	79.806	6.3892	-908.77	83.277	53.969	-757.04	22.435	23.828	-311.27	79.08	-52.265	-891.96	90.669	-29.587	-842.07	18.588	75.151
274	1.37	-519.99	1400.1	26.043	-608.97	1196.1	145.76	-579.26	1053.9	225.79	-464.6	832.56	248.26	-421.59	748.29	200.82	-617.8	1192.2	-222.88	-614.08	818.97	-348.85	-640.61	712.73	-377.62	-654.96	621.85	179.6	-573.22	548.9	-217.18	-537.85	1163.7	-34.436	-449.16	731.16	264.88	-526.71	572.92	-187.47	-507.84	1410.8	-69.381	-612.72	1024.8	-292.01	-727	1127.4	83.89	-386	698.32	247.75	-552.61	468.95	-186.31	-557.54	927	257.93	-769.41	1048.8	-23.881	-561.32	795.89	-185.15	-681.57	1249.6	-35.79	-594.66	629.56	-238.84	-506.53	392.56	-147.12	-589.56	705.64	-341.03	-456.55	220.62	-134.34	-488.79	1056.9	-24.942	-267.22	88.012	-79.539	-435.93	227.25	-76.131	-635.28	1336.1	-103.03	-749.18	270.64	49.873	-682	544.15	158.13	-417.71	82.029	-29.049	-455.19	312.83	-80.247	-682.8	889.81	-239.61	-469.46	33.97	-59.366	-606.64	663.11	-391.87	-626.59	531.2	138.03	-814.35	832.28	17.744	-657.38	912.95	-307.11	-650.4	1330	29.035	-411.31	148.08	-73.559	-705.66	464.37	126.51	-343.95	41.512	-125.79	-757.31	386.46	103.48	-608.64	884.9	192.2	-829.49	210.31	85.877	-795.58	198.03	36.232	-814.74	821.96	-86.01	-812.47	24.725	-15.245	-836.81	124.78	22.611	-436.21	60.045	-105.77	-556.14	806.46	137.19	-968.59	83.119	7.1571	-907.34	85.202	54.713	-757.16	22.372	23.582	-308.4	74.965	-50.812	-890.49	92.544	-28.78	-841.89	18.733	75.219
275	1.375	-513.97	1399.8	25.456	-603.13	1195.6	144.96	-573.25	1053.5	225.11	-459.02	832.2	248.14	-415.94	747.89	200.96	-611.4	1191.4	-223.79	-607.33	817.93	-349.23	-633.92	711.68	-377.88	-648.36	621.64	179.9	-566.2	549.05	-216.73	-531.58	1163.3	-35.119	-443.63	730.83	264.99	-519.59	573.16	-187.28	-501.79	1410.5	-69.965	-606.52	1023.9	-292.79	-721.07	1126.9	82.814	-380.45	698.02	248.07	-545.43	469.16	-185.8	-551.88	926.73	257.57	-763.03	1048.3	-24.835	-554.59	795	-185.29	-675.4	1249.1	-36.824	-587.77	629.64	-238.51	-499.59	392.6	-146.75	-582.83	704.58	-341.35	-451.54	219.77	-133.67	-482.42	1056.6	-25.293	-263.7	82.355	-77.966	-431.14	226.16	-75.341	-629.12	1335.7	-103.73	-744.48	270.09	50.797	-675.46	543.9	158.69	-415.05	80.652	-28.207	-449.37	311.93	-79.609	-675.78	888.99	-239.92	-467.69	34.317	-58.91	-600.03	662.03	-392.1	-620.07	530.85	138.54	-807.92	831.75	17.358	-650.58	911.94	-307.47	-644.31	1329.5	28.321	-407.5	146.74	-72.623	-699.21	464.04	127.26	-342.05	38.628	-125	-750.99	386.1	104.44	-603	884.47	191.95	-825.71	211.02	86.781	-792.1	198.32	37.038	-807.97	821.46	-86.285	-812.39	24.937	-15.111	-834.5	125.79	23.336	-433.61	59.3	-105.07	-550.1	806.57	137.5	-966.81	86.676	7.8932	-905.73	87.276	55.455	-757.32	22.305	23.324	-305.77	70.784	-49.464	-888.79	94.555	-27.944	-841.69	18.946	75.281
276	1.38	-507.94	1399.6	24.857	-597.26	1195.2	144.14	-567.26	1053.2	224.41	-453.53	831.87	248.02	-410.4	747.49	201.12	-604.95	1190.7	-224.73	-600.47	816.95	-349.56	-627.1	710.66	-378.07	-641.63	621.46	180.19	-559.17	549.37	-216.32	-525.28	1162.9	-35.828	-438.24	730.51	265.09	-512.47	573.56	-187.11	-495.72	1410.4	-70.561	-600.28	1023.1	-293.58	-715.11	1126.6	81.714	-375.05	697.73	248.41	-538.26	469.53	-185.36	-546.28	926.52	257.19	-756.64	1047.9	-25.801	-547.86	794.25	-185.43	-669.16	1248.8	-37.885	-580.85	629.91	-238.22	-492.62	392.78	-146.46	-576	703.57	-341.58	-446.61	219.03	-133.12	-476.05	1056.4	-25.73	-260.45	76.658	-76.502	-426.46	225.17	-74.681	-622.92	1335.4	-104.44	-739.49	269.53	51.812	-668.73	543.65	159.23	-412.59	79.383	-27.496	-443.6	311.12	-79.085	-668.71	888.25	-240.22	-466.13	34.781	-58.569	-593.28	660.99	-392.23	-613.35	530.56	139.04	-801.45	831.24	17.068	-643.71	910.99	-307.83	-638.18	1329.1	27.592	-403.85	145.48	-71.838	-692.48	463.69	128.04	-340.4	35.824	-124.37	-744.34	385.69	105.48	-597.43	884.14	191.66	-821.68	211.79	87.718	-788.36	198.65	37.903	-801.25	821.07	-86.48	-812.26	25.185	-14.979	-831.95	126.88	24.095	-431.21	58.655	-104.5	-544.04	806.75	137.72	-964.73	90.494	8.5797	-903.91	89.513	56.18	-757.5	22.234	23.064	-303.38	66.618	-48.237	-886.81	96.708	-27.093	-841.48	19.246	75.334
277	1.385	-501.9	1399.5	24.248	-591.34	1194.8	143.31	-561.31	1053	223.7	-448.14	831.58	247.89	-404.98	747.11	201.28	-598.42	1190.1	-225.69	-593.5	816.02	-349.84	-620.16	709.69	-378.2	-634.78	621.31	180.46	-552.14	549.86	-215.97	-518.95	1162.7	-36.559	-433	730.22	265.2	-505.36	574.09	-186.97	-489.64	1410.3	-71.165	-593.97	1022.4	-294.37	-709.13	1126.4	80.598	-369.79	697.45	248.78	-531.11	470.04	-185.01	-540.73	926.38	256.77	-750.25	1047.7	-26.775	-541.14	793.64	-185.55	-662.84	1248.6	-38.966	-573.9	630.35	-237.96	-485.66	393.12	-146.26	-569.05	702.63	-341.71	-441.77	218.41	-132.72	-469.65	1056.2	-26.252	-257.46	71.03	-75.155	-421.88	224.27	-74.16	-616.7	1335.2	-105.17	-734.18	268.97	52.923	-661.8	543.4	159.74	-410.3	78.235	-26.914	-437.86	310.41	-78.687	-661.59	887.6	-240.52	-464.77	35.336	-58.341	-586.38	660	-392.25	-606.41	530.35	139.52	-794.96	830.75	16.881	-636.77	910.12	-308.19	-632.02	1328.7	26.849	-400.38	144.3	-71.213	-685.45	463.31	128.85	-338.97	33.151	-123.91	-737.34	385.24	106.59	-591.92	883.9	191.33	-817.37	212.64	88.683	-784.32	199.02	38.829	-794.6	820.79	-86.596	-812.04	25.474	-14.85	-829.13	128.08	24.889	-428.99	58.105	-104.06	-537.97	806.99	137.83	-962.3	94.584	9.2007	-901.86	91.927	56.876	-757.71	22.157	22.814	-301.23	62.54	-47.137	-884.51	99.011	-26.238	-841.24	19.653	75.374
278	1.39	-495.84	1399.5	23.629	-585.37	1194.6	142.45	-555.4	1052.8	222.97	-442.85	831.33	247.76	-399.68	746.76	201.46	-591.83	1189.5	-226.68	-586.43	815.16	-350.07	-613.08	708.79	-378.25	-627.81	621.2	180.72	-545.14	550.51	-215.68	-512.6	1162.6	-37.309	-427.9	729.97	265.3	-498.29	574.77	-186.85	-483.55	1410.4	-71.778	-587.58	1021.7	-295.16	-703.12	1126.3	79.477	-364.7	697.18	249.18	-524.01	470.68	-184.76	-535.25	926.32	256.32	-743.85	1047.7	-27.751	-534.42	793.19	-185.66	-656.45	1248.5	-40.06	-566.95	630.96	-237.76	-478.7	393.58	-146.16	-561.99	701.76	-341.74	-437.05	217.89	-132.46	-463.25	1056.1	-26.859	-254.76	65.571	-73.927	-417.42	223.46	-73.783	-610.44	1335	-105.91	-728.53	268.41	54.135	-654.65	543.15	160.22	-408.2	77.214	-26.455	-432.18	309.79	-78.421	-654.42	887.07	-240.81	-463.58	35.951	-58.215	-579.34	659.07	-392.18	-599.25	530.22	139.98	-788.44	830.29	16.804	-629.76	909.34	-308.54	-625.83	1328.5	26.095	-397.07	143.2	-70.746	-678.11	462.91	129.7	-337.75	30.654	-123.6	-729.96	384.76	107.77	-586.47	883.77	190.95	-812.77	213.58	89.675	-779.97	199.44	39.821	-788.01	820.62	-86.631	-811.73	25.815	-14.723	-826	129.38	25.718	-426.96	57.642	-103.73	-531.88	807.29	137.83	-959.48	98.955	9.7436	-899.55	94.528	57.535	-757.94	22.074	22.586	-299.3	58.62	-46.16	-881.85	101.47	-25.385	-840.96	20.186	75.395
279	1.395	-489.77	1399.6	23.004	-579.35	1194.5	141.59	-549.53	1052.8	222.23	-437.66	831.12	247.63	-394.5	746.43	201.65	-585.16	1189.1	-227.67	-579.25	814.39	-350.25	-605.87	707.96	-378.24	-620.71	621.14	180.96	-538.16	551.31	-215.47	-506.22	1162.5	-38.074	-422.96	729.76	265.4	-491.29	575.58	-186.74	-477.44	1410.7	-72.396	-581.11	1021.2	-295.94	-697.09	1126.4	78.36	-359.76	696.93	249.6	-516.97	471.46	-184.61	-529.83	926.35	255.84	-737.46	1047.7	-28.722	-527.7	792.92	-185.75	-649.98	1248.5	-41.159	-560	631.72	-237.62	-471.78	394.14	-146.14	-554.81	700.99	-341.67	-432.47	217.45	-132.32	-456.83	1056.1	-27.547	-252.34	60.375	-72.815	-413.08	222.74	-73.542	-604.16	1335	-106.66	-722.53	267.86	55.45	-647.28	542.91	160.69	-406.29	76.323	-26.104	-426.57	309.25	-78.286	-647.2	886.64	-241.1	-462.53	36.598	-58.178	-572.16	658.21	-391.99	-591.85	530.18	140.42	-781.9	829.85	16.838	-622.68	908.65	-308.88	-619.62	1328.4	25.331	-393.93	142.2	-70.426	-670.45	462.49	130.57	-336.73	28.373	-123.45	-722.21	384.24	109.01	-581.07	883.76	190.51	-807.85	214.62	90.692	-775.27	199.92	40.88	-781.49	820.57	-86.587	-811.3	26.218	-14.593	-822.53	130.79	26.586	-425.11	57.261	-103.51	-525.75	807.64	137.71	-956.23	103.61	10.201	-896.93	97.325	58.148	-758.18	21.983	22.393	-297.6	54.917	-45.301	-878.79	104.08	-24.54	-840.63	20.867	75.397
